<svg xmlns="http://www.w3.org/2000/svg" viewBox="0 0 13.007 16">
  <defs>
    <style>
      .cls-1 {
        fill: #fff;
      }
    </style>
  </defs>
  <g id="Download_as_Excel" data-name="Download as Excel" transform="translate(-0.011 0)">
    <path id="Path_12" data-name="Path 12" class="cls-1" d="M13.011,5.566V5.472a.453.453,0,0,0-.133-.315L11.272,3.551q-1.7-1.7-3.4-3.4A.5.5,0,0,0,7.5,0H2.663A2.546,2.546,0,0,0,1.189.424,2.447,2.447,0,0,0,.022,2.5C.006,3.785.01,5.1.014,6.37c0,.455,0,.909,0,1.368h0v5.585a3.3,3.3,0,0,0,.027.447A2.591,2.591,0,0,0,2.545,16c2.91,0,5.763,0,7.927,0a2.253,2.253,0,0,0,1-.224,2.538,2.538,0,0,0,1.538-2.406c.008-1.849.008-3.732,0-5.551C13.011,7.071,13.011,6.317,13.011,5.566ZM8.017,2.652V1.773l3.225,3.221h-.595c-.125,0-.25,0-.383,0S10,5,9.862,5c-.171,0-.345,0-.515-.015A1.473,1.473,0,0,1,8.04,3.759a1.65,1.65,0,0,1-.019-.307C8.017,3.187,8.017,2.918,8.017,2.652Zm3.99,10.7a1.58,1.58,0,0,1-1.334,1.614,2.06,2.06,0,0,1-.333.019H2.678a1.578,1.578,0,0,1-1.663-1.667V2.652A1.573,1.573,0,0,1,2.651,1H7V2.785c0,.315,0,.637.019.951A2.458,2.458,0,0,0,9.442,6h2.543L12,6.233c0,.019,0,.034,0,.049a.958.958,0,0,1,0,.106V7.529Q12.009,10.445,12.007,13.353Z"/>
    <path id="Path_13" data-name="Path 13" class="cls-1" d="M70.026,195.124a1.5,1.5,0,0,0-1.516-1.224H63.357c-.076,0-.144,0-.212,0a1.489,1.489,0,0,0-1.406,1.372c-.019,1.258-.019,2.486,0,3.653a1.441,1.441,0,0,0,1.391,1.406c.637.015,1.285.011,1.91.008.28,0,.561,0,.841,0h.246v.008h.451c.618,0,1.254,0,1.883,0a1.965,1.965,0,0,0,.568-.076,1.5,1.5,0,0,0,1.031-1.47c0-1.027,0-2.111,0-3.316A1.8,1.8,0,0,0,70.026,195.124Zm-7.287.25a.455.455,0,0,1,.4-.455,1.189,1.189,0,0,1,.2-.011h2.039v1.7H62.74v-.527C62.736,195.848,62.736,195.609,62.74,195.374Zm2.641,3.941-.235.011a.1.1,0,0,0-.034,0,.855.855,0,0,1-.1,0H63.266a.483.483,0,0,1-.531-.527v-.89a.283.283,0,0,1,.023-.11l0-.008.057-.167h2.558v1.682Zm1.019-4.407h2.058c.413,0,.6.186.6.6v1.1H66.4Zm2.649,3.956a.474.474,0,0,1-.481.466H66.692a.411.411,0,0,1-.1-.015l-.008,0-.186-.045v-1.633h2.656v.917C69.056,198.652,69.056,198.758,69.049,198.864Z" transform="translate(-59.376 -186.553)"/>
  </g>
</svg>
