<svg xmlns="http://www.w3.org/2000/svg" viewBox="0 0 40 62.86">
  <defs>
    <style>
      .cls-1 {
        fill: #fff;
      }
    </style>
  </defs>
  <g id="Employee_on_Bench" data-name="Employee on Bench" transform="translate(0.163 0.011)">
    <g id="Group_6" data-name="Group 6" transform="translate(-0.163 31.244)">
      <path id="Path_7" data-name="Path 7" class="cls-1" d="M391.223,608.529a3.541,3.541,0,0,0,1.5,1.09,21.23,21.23,0,0,0,2.26.8,2.86,2.86,0,0,1,2.314,2.789,6.973,6.973,0,0,1,.006.944.789.789,0,0,1-.834.749.771.771,0,0,1-.676-.859,6.179,6.179,0,0,0-.018-.822,1.283,1.283,0,0,0-1.139-1.291,12.536,12.536,0,0,1-2.923-1.1,4.947,4.947,0,0,1-1.76-1.468.316.316,0,0,0-.262-.1,4.446,4.446,0,0,1-1.9.018.26.26,0,0,0-.207.049c-.158.177-.3.378-.469.585a3.434,3.434,0,0,1,1.565,2.266,6.179,6.179,0,0,1,.171,1.413c-.024.95-.1,1.9-.207,2.844a1.252,1.252,0,0,1-.408.676.728.728,0,0,1-.9-.049.768.768,0,0,1-.256-.847,9.914,9.914,0,0,0,.116-3.417,1.9,1.9,0,0,0-1.5-1.705,16.338,16.338,0,0,1-4.476-2c-.128-.079-.256-.164-.378-.256a.744.744,0,0,1-.195-1.066.762.762,0,0,1,1.1-.2,16,16,0,0,0,3.3,1.669.386.386,0,0,0,.463-.073c.195-.189.4-.359.609-.542-1.724-1.529-2.034-3.514-1.912-5.627a7.383,7.383,0,0,1,.359-1.961,4.074,4.074,0,0,1,3.831-2.7,4.461,4.461,0,0,1,3.307,1.115,4.266,4.266,0,0,1,1.315,2.674,9.459,9.459,0,0,1-.225,3.983A4.516,4.516,0,0,1,391.223,608.529Zm.3-5.067c-.018-.25-.024-.621-.073-.993a2.6,2.6,0,0,0-1.62-2.375,2.987,2.987,0,0,0-3.149.439,2.562,2.562,0,0,0-.847,1.638,7.243,7.243,0,0,0,.384,4.032,2.377,2.377,0,0,0,1.413,1.419A2.632,2.632,0,0,0,391,606.258,6.792,6.792,0,0,0,391.521,603.462Z" transform="translate(-357.314 -593.15)"/>
      <path id="Path_8" data-name="Path 8" class="cls-1" d="M10.925,609.045c.329.238.615.463.914.664a.354.354,0,0,0,.25-.006,16.127,16.127,0,0,0,3.575-1.724.889.889,0,0,1,.865-.122.773.773,0,0,1,.231,1.249,2.091,2.091,0,0,1-.408.317,16.532,16.532,0,0,1-4.616,2.059,1.87,1.87,0,0,0-1.443,1.754,10.048,10.048,0,0,0,.146,3.386.759.759,0,0,1-1.431.5,3.943,3.943,0,0,1-.244-1.06c-.055-.719-.085-1.437-.079-2.156a4.161,4.161,0,0,1,1.48-3.459c-.2-.25-.4-.493-.6-.731a.237.237,0,0,0-.183-.043,4.215,4.215,0,0,1-1.809-.012.364.364,0,0,0-.3.079,4.957,4.957,0,0,1-2.144,1.65c-.9.384-1.839.688-2.771.987a1.086,1.086,0,0,0-.834.828,6.638,6.638,0,0,0-.122,1.206.824.824,0,0,1-.725.889.791.791,0,0,1-.822-.828,4.476,4.476,0,0,1,.323-2.113,2.6,2.6,0,0,1,1.638-1.437c.95-.317,1.894-.658,2.82-1.029a2.628,2.628,0,0,0,1.224-.993,6.324,6.324,0,0,1-.633-.578,5.508,5.508,0,0,1-1.127-2.655,9.047,9.047,0,0,1,.085-3.685A4.128,4.128,0,0,1,8.2,598.752a4.346,4.346,0,0,1,3.6,1.437,4.246,4.246,0,0,1,1,2.314,9.575,9.575,0,0,1-.195,3.922A4.877,4.877,0,0,1,10.925,609.045Zm.506-5.171c0-.183.006-.365,0-.548s-.03-.341-.049-.518a2.659,2.659,0,0,0-2.844-2.558,2.529,2.529,0,0,0-2.722,2.107,7.517,7.517,0,0,0,.146,3.9,2.459,2.459,0,0,0,2.327,1.9,2.51,2.51,0,0,0,2.607-1.456A6.171,6.171,0,0,0,11.431,603.875Z" transform="translate(0.163 -593.538)"/>
      <path id="Path_9" data-name="Path 9" class="cls-1" d="M235.5,519.9a25.3,25.3,0,0,1,.426-2.753,5.207,5.207,0,0,1,5.134-3.971,5.612,5.612,0,0,1,4.574,1.864,5.891,5.891,0,0,1,1.352,3.392,12.808,12.808,0,0,1-.286,4.714,6.322,6.322,0,0,1-1.48,2.789,5.583,5.583,0,0,1-7.82-.037,6.452,6.452,0,0,1-1.517-3.173C235.695,521.816,235.622,520.878,235.5,519.9Zm9.976-.262c-.043-.39-.073-1.06-.189-1.718a3.7,3.7,0,0,0-2.016-2.838,4.543,4.543,0,0,0-2.126-.39,3.69,3.69,0,0,0-3.758,2.936,10.019,10.019,0,0,0,.049,4.824,6.889,6.889,0,0,0,.755,1.845,3.723,3.723,0,0,0,4.458,1.419,3.635,3.635,0,0,0,2.168-2.168A9.848,9.848,0,0,0,245.476,519.642Z" transform="translate(-221.147 -513.179)"/>
      <path id="Path_10" data-name="Path 10" class="cls-1" d="M288.544,762.773c.091-2,.183-3.989.268-5.987a.64.64,0,0,0-.11-.359,2.542,2.542,0,0,1-.42-1.346.764.764,0,0,1,.743-.828.738.738,0,0,1,.828.737.986.986,0,0,0,1.553.822.961.961,0,0,0,.439-.822.758.758,0,0,1,.4-.639.751.751,0,0,1,.81.024.664.664,0,0,1,.292.652,2.59,2.59,0,0,1-.542,1.577.527.527,0,0,0-.079.311q.155,3.6.323,7.2c.067,1.523.14,3.039.207,4.562a.96.96,0,0,1-.341.81c-.524.469-1.035.938-1.559,1.4a.825.825,0,0,1-1.224.006c-.512-.451-1-.914-1.517-1.364a.978.978,0,0,1-.347-.834c.1-1.973.189-3.953.274-5.926Zm2.369,6.608c.219-.262.432-.487.609-.731a.739.739,0,0,0,.164-.414q-.183-4.413-.39-8.813c-.031-.615-.061-1.23-.1-1.839h-.786c-.006.1-.012.2-.018.3-.049,1.157-.1,2.308-.146,3.465q-.146,3.481-.286,6.961a.407.407,0,0,0,.085.3C290.3,768.846,290.56,769.065,290.913,769.382Z" transform="translate(-270.701 -739.562)"/>
    </g>
    <g id="Group_60" data-name="Group 60" transform="translate(6.806 -0.082)">
      <path id="Path_29" data-name="Path 29" class="cls-1" d="M0,13.662A13.3,13.3,0,0,1,3.013,4.974,12.819,12.819,0,0,1,11.378.22,12.929,12.929,0,0,1,22.331,3.592a12.809,12.809,0,0,1,4.209,8.191A12.916,12.916,0,0,1,23.6,21.874a12.759,12.759,0,0,1-8.7,4.748,12.957,12.957,0,0,1-10.8-3.645,12.818,12.818,0,0,1-3.95-7.764C.052,14.6.029,13.979,0,13.662Zm2.507.011c.04.4.075,1.016.172,1.628a9.878,9.878,0,0,0,2.892,5.672,11.328,11.328,0,0,0,7.474,3.235,9.72,9.72,0,0,0,4.657-.852,10.793,10.793,0,0,0,5.56-5.819,10.766,10.766,0,0,0,.69-6.426,9.883,9.883,0,0,0-2.72-5.087A10.605,10.605,0,0,0,12.212,2.6,10.522,10.522,0,0,0,5.669,5.7,11.087,11.087,0,0,0,2.507,13.673Z" transform="translate(0 0)"/>
      <path id="Path_30" data-name="Path 30" class="cls-1" d="M67.1,77.572a9.486,9.486,0,0,1,7.158-9.07,8.762,8.762,0,0,1,8.515,2.065,9.679,9.679,0,0,1,3.162,8.174,8.543,8.543,0,0,1-2.047,5.114,9.605,9.605,0,0,1-6,3.306,8.956,8.956,0,0,1-9.251-4.267A9.961,9.961,0,0,1,67.1,77.572Zm9.188-8.283c-.052.148-.081.229-.1.311-.719,2.612-1.443,5.224-2.15,7.835a2.236,2.236,0,0,0,1.961,2.858c1.7.3,3.386.612,5.077.912.506.093,1.018.18,1.524.268a.71.71,0,0,1,.057-.082,2.856,2.856,0,0,1-.253-.175c-1.213-1.153-2.426-2.3-3.634-3.464a1.01,1.01,0,0,1-.259-.437c-.374-1.317-.73-2.639-1.092-3.956C77.04,72.026,76.672,70.693,76.287,69.289Z" transform="translate(-63.242 -64.369)"/>
      <path id="Path_31" data-name="Path 31" class="cls-1" d="M210.4,230.087a1.072,1.072,0,1,1,1.092,1.033A1.051,1.051,0,0,1,210.4,230.087Z" transform="translate(-198.302 -216.507)"/>
    </g>
  </g>
</svg>
