<svg xmlns="http://www.w3.org/2000/svg" viewBox="0 0 40 62.86">
  <defs>
    <style>
      .cls-1 {
        fill: #fff;
      }
    </style>
  </defs>
  <g id="Non_Billable_Employee" data-name="Non Billable Employee" transform="translate(0.163 0.011)">
    <g id="Group_6" data-name="Group 6" transform="translate(-0.163 31.244)">
      <path id="Path_7" data-name="Path 7" class="cls-1" d="M391.223,608.529a3.541,3.541,0,0,0,1.5,1.09,21.23,21.23,0,0,0,2.26.8,2.86,2.86,0,0,1,2.314,2.789,6.973,6.973,0,0,1,.006.944.789.789,0,0,1-.834.749.771.771,0,0,1-.676-.859,6.179,6.179,0,0,0-.018-.822,1.283,1.283,0,0,0-1.139-1.291,12.536,12.536,0,0,1-2.923-1.1,4.947,4.947,0,0,1-1.76-1.468.316.316,0,0,0-.262-.1,4.446,4.446,0,0,1-1.9.018.26.26,0,0,0-.207.049c-.158.177-.3.378-.469.585a3.434,3.434,0,0,1,1.565,2.266,6.179,6.179,0,0,1,.171,1.413c-.024.95-.1,1.9-.207,2.844a1.252,1.252,0,0,1-.408.676.728.728,0,0,1-.9-.049.768.768,0,0,1-.256-.847,9.914,9.914,0,0,0,.116-3.417,1.9,1.9,0,0,0-1.5-1.705,16.338,16.338,0,0,1-4.476-2c-.128-.079-.256-.164-.378-.256a.744.744,0,0,1-.195-1.066.762.762,0,0,1,1.1-.2,16,16,0,0,0,3.3,1.669.386.386,0,0,0,.463-.073c.195-.189.4-.359.609-.542-1.724-1.529-2.034-3.514-1.912-5.627a7.383,7.383,0,0,1,.359-1.961,4.074,4.074,0,0,1,3.831-2.7,4.461,4.461,0,0,1,3.307,1.115,4.266,4.266,0,0,1,1.315,2.674,9.459,9.459,0,0,1-.225,3.983A4.516,4.516,0,0,1,391.223,608.529Zm.3-5.067c-.018-.25-.024-.621-.073-.993a2.6,2.6,0,0,0-1.62-2.375,2.987,2.987,0,0,0-3.149.439,2.562,2.562,0,0,0-.847,1.638,7.243,7.243,0,0,0,.384,4.032,2.377,2.377,0,0,0,1.413,1.419A2.632,2.632,0,0,0,391,606.258,6.792,6.792,0,0,0,391.521,603.462Z" transform="translate(-357.314 -593.15)"/>
      <path id="Path_8" data-name="Path 8" class="cls-1" d="M10.925,609.045c.329.238.615.463.914.664a.354.354,0,0,0,.25-.006,16.127,16.127,0,0,0,3.575-1.724.889.889,0,0,1,.865-.122.773.773,0,0,1,.231,1.249,2.091,2.091,0,0,1-.408.317,16.532,16.532,0,0,1-4.616,2.059,1.87,1.87,0,0,0-1.443,1.754,10.048,10.048,0,0,0,.146,3.386.759.759,0,0,1-1.431.5,3.943,3.943,0,0,1-.244-1.06c-.055-.719-.085-1.437-.079-2.156a4.161,4.161,0,0,1,1.48-3.459c-.2-.25-.4-.493-.6-.731a.237.237,0,0,0-.183-.043,4.215,4.215,0,0,1-1.809-.012.364.364,0,0,0-.3.079,4.957,4.957,0,0,1-2.144,1.65c-.9.384-1.839.688-2.771.987a1.086,1.086,0,0,0-.834.828,6.638,6.638,0,0,0-.122,1.206.824.824,0,0,1-.725.889.791.791,0,0,1-.822-.828,4.476,4.476,0,0,1,.323-2.113,2.6,2.6,0,0,1,1.638-1.437c.95-.317,1.894-.658,2.82-1.029a2.628,2.628,0,0,0,1.224-.993,6.324,6.324,0,0,1-.633-.578,5.508,5.508,0,0,1-1.127-2.655,9.047,9.047,0,0,1,.085-3.685A4.128,4.128,0,0,1,8.2,598.752a4.346,4.346,0,0,1,3.6,1.437,4.246,4.246,0,0,1,1,2.314,9.575,9.575,0,0,1-.195,3.922A4.877,4.877,0,0,1,10.925,609.045Zm.506-5.171c0-.183.006-.365,0-.548s-.03-.341-.049-.518a2.659,2.659,0,0,0-2.844-2.558,2.529,2.529,0,0,0-2.722,2.107,7.517,7.517,0,0,0,.146,3.9,2.459,2.459,0,0,0,2.327,1.9,2.51,2.51,0,0,0,2.607-1.456A6.171,6.171,0,0,0,11.431,603.875Z" transform="translate(0.163 -593.538)"/>
      <path id="Path_9" data-name="Path 9" class="cls-1" d="M235.5,519.9a25.3,25.3,0,0,1,.426-2.753,5.207,5.207,0,0,1,5.134-3.971,5.612,5.612,0,0,1,4.574,1.864,5.891,5.891,0,0,1,1.352,3.392,12.808,12.808,0,0,1-.286,4.714,6.322,6.322,0,0,1-1.48,2.789,5.583,5.583,0,0,1-7.82-.037,6.452,6.452,0,0,1-1.517-3.173C235.695,521.816,235.622,520.878,235.5,519.9Zm9.976-.262c-.043-.39-.073-1.06-.189-1.718a3.7,3.7,0,0,0-2.016-2.838,4.543,4.543,0,0,0-2.126-.39,3.69,3.69,0,0,0-3.758,2.936,10.019,10.019,0,0,0,.049,4.824,6.889,6.889,0,0,0,.755,1.845,3.723,3.723,0,0,0,4.458,1.419,3.635,3.635,0,0,0,2.168-2.168A9.848,9.848,0,0,0,245.476,519.642Z" transform="translate(-221.147 -513.179)"/>
      <path id="Path_10" data-name="Path 10" class="cls-1" d="M288.544,762.773c.091-2,.183-3.989.268-5.987a.64.64,0,0,0-.11-.359,2.542,2.542,0,0,1-.42-1.346.764.764,0,0,1,.743-.828.738.738,0,0,1,.828.737.986.986,0,0,0,1.553.822.961.961,0,0,0,.439-.822.758.758,0,0,1,.4-.639.751.751,0,0,1,.81.024.664.664,0,0,1,.292.652,2.59,2.59,0,0,1-.542,1.577.527.527,0,0,0-.079.311q.155,3.6.323,7.2c.067,1.523.14,3.039.207,4.562a.96.96,0,0,1-.341.81c-.524.469-1.035.938-1.559,1.4a.825.825,0,0,1-1.224.006c-.512-.451-1-.914-1.517-1.364a.978.978,0,0,1-.347-.834c.1-1.973.189-3.953.274-5.926Zm2.369,6.608c.219-.262.432-.487.609-.731a.739.739,0,0,0,.164-.414q-.183-4.413-.39-8.813c-.031-.615-.061-1.23-.1-1.839h-.786c-.006.1-.012.2-.018.3-.049,1.157-.1,2.308-.146,3.465q-.146,3.481-.286,6.961a.407.407,0,0,0,.085.3C290.3,768.846,290.56,769.065,290.913,769.382Z" transform="translate(-270.701 -739.562)"/>
    </g>
    <g id="Group_61" data-name="Group 61" transform="translate(6.337 -0.009)">
      <path id="Path_32" data-name="Path 32" class="cls-1" d="M13.511,27A13.5,13.5,0,1,1,27,13.51,13.553,13.553,0,0,1,13.511,27Zm.816-21.032V4.24H12.666c0,.459-.015.9.007,1.326A.442.442,0,0,1,12.3,6.1a4.2,4.2,0,0,0,.066,8.074.361.361,0,0,1,.313.423c-.015,1.436-.007,2.864-.007,4.3a3.425,3.425,0,0,1-.029.343A2.5,2.5,0,0,1,10.968,16.9H9.306c0,.095-.007.16,0,.233a4.2,4.2,0,0,0,3.061,3.8.349.349,0,0,1,.306.43c-.015.466-.007.933-.007,1.392h1.683c0-.488.007-.955-.007-1.414a.331.331,0,0,1,.284-.4,4.208,4.208,0,0,0,.022-8.1c-.262-.08-.306-.189-.306-.423.007-1.436.007-2.864.007-4.3,0-.1.015-.2.022-.343a2.52,2.52,0,0,1,1.683,2.325h1.632C17.847,8.336,16.47,6.63,14.327,5.967Z" transform="translate(0 0)"/>
      <path id="Path_33" data-name="Path 33" class="cls-1" d="M152.27,111.657a2.455,2.455,0,0,1,0-4.657Z" transform="translate(-139.619 -99.204)"/>
      <path id="Path_34" data-name="Path 34" class="cls-1" d="M197.2,199.9a2.35,2.35,0,0,1,1.662,2.157,2.389,2.389,0,0,1-1.662,2.47Z" transform="translate(-182.829 -185.334)"/>
    </g>
  </g>
</svg>
